<?xml version="1.0" encoding="UTF-8" standalone="no"?><svg width="100" height="100" viewBox="-0.5 -0.5 1 1" version="1.1" xmlns="http://www.w3.org/2000/svg"><path style="fill:#666666;fill-opacity:1;stroke:#b3b3b3;stroke-width:0.0152966px;stroke-linecap:butt;stroke-linejoin:miter;stroke-opacity:1" d="m -0.2752 -0.165 0.1459 -0.0756 0.1006 -0.1486 0.1821 0.1269 0.08 -0.0209 0.0634 0.1091 -0.0897 -0.0586 -0.0404 0.068 0.0988 0.0622 -0.1369 -0.0151 -0.0007 -0.0998 -0.1387 -0.0931 -0.0681 0.1013 0.0831 0.0612 L 0.0273 0 0.0043 0.1481 -0.0788 0.2094 -0.0107 0.3107 0.128 0.2176 0.1287 0.1178 0.2655 0.1026 0.1667 0.1648 0.2072 0.2328 0.2969 0.1742 0.2334 0.2833 0.1534 0.2624 -0.0287 0.3893 -0.1293 0.2406 -0.2752 0.165 V 0 Z"/></svg>